<svg xmlns="http://www.w3.org/2000/svg" viewBox="0 0 137.22 134.86"><defs><style>.cls-1{fill:none;stroke:#666;stroke-miterlimit:10;stroke-width:20.23px;}.cls-2{fill:#666;}</style></defs><g id="レイヤー_2" data-name="レイヤー 2"><g id="レイヤー_4" data-name="レイヤー 4"><path class="cls-1" d="M59.26,124.91c-19.68-3.56-37.07-17.69-44.82-36-7.5-17.75-5-38.6,5.53-54.24S48.88,10,67.86,10.11c20.77.12,40.41,11.94,50.9,29.84A57.64,57.64,0,0,1,121,93.54a55.3,55.3,0,0,1-3.28,5.94"/><path class="cls-2" d="M97.9,84.32l-2,32.73a3.62,3.62,0,0,0,3.81,3.83L133.8,119a3.62,3.62,0,0,0,2.31-6.22L104,81.94A3.62,3.62,0,0,0,97.9,84.32Z"/></g></g></svg>