<svg xmlns="http://www.w3.org/2000/svg" viewBox="0 0 124.04 100.96"><defs><style>.cls-1{fill:#666;}</style></defs><g id="レイヤー_2" data-name="レイヤー 2"><g id="レイヤー_7" data-name="レイヤー 7"><path class="cls-1" d="M0,11.66V89.29A11.93,11.93,0,0,0,12.17,101H43A11.92,11.92,0,0,0,55.17,89.29V11.66A11.91,11.91,0,0,0,43,0H12.17A11.92,11.92,0,0,0,0,11.66Z"/><path class="cls-1" d="M69.59,10.51V90.45A10.74,10.74,0,0,0,80.53,101H113.1A10.73,10.73,0,0,0,124,90.45V10.51A10.72,10.72,0,0,0,113.1,0H80.53A10.73,10.73,0,0,0,69.59,10.51Z"/></g></g></svg>